<svg xmlns="http://www.w3.org/2000/svg" height="104.652" width="83.197"><defs><clipPath id="a" clipPathUnits="userSpaceOnUse"><path d="M0 78.489h62.397V0H0z"/></clipPath></defs><g clip-path="url(#a)" transform="matrix(1.33333 0 0 -1.33333 0 104.652)"><path d="M33.237 51.728c-.687.135-3.394.135-4.08 0-1.732-.34-5.76-.988-5.76 1.08 0 1.068 6.72 2.295 7.8 2.295s7.801-1.228 7.802-2.295c0-2.068-4.029-1.42-5.762-1.08m29.16-15.24c0 5.213-2.367 7.775-3.598 9.961-.906 1.605-3.977 10.752-4.2 17.64-.067 4.905-1.693 12.446-2.88 14.4-.865 0-1.522-7.782-2.28-11.64-1.429-7.042-3.766-8.933-4.439-9-.758 2.81-4.114 7.364-13.677 7.726-.048.015-.083.028-.125.042-.043-.013-.078-.026-.126-.042-9.562-.362-12.918-4.917-13.675-7.726-.674.067-3.01 1.958-4.438 9-.76 3.859-1.416 11.64-2.28 11.64-1.189-1.954-2.814-9.495-2.88-14.4-.226-6.888-3.294-16.033-4.2-17.64C2.366 44.264 0 41.703 0 36.49c0-3.744 5.2-7.203 5.638-11.4.125-1.221-.03-2.348.12-3.36C7.761 4.245 23.626-.002 31.198-.002c7.572 0 23.437 4.246 25.44 21.73.151 1.012-.005 2.139.12 3.36.44 4.197 5.64 7.654 5.64 11.4" fill="#826550"/></g></svg>