<svg xmlns="http://www.w3.org/2000/svg" height="65.971" width="68.639"><defs><clipPath id="a" clipPathUnits="userSpaceOnUse"><path d="M0 49.479h51.479V0H0z"/></clipPath></defs><g clip-path="url(#a)" transform="matrix(1.33333 0 0 -1.33333 0 65.971)"><path d="M36.95 21.423c-.245-1.553-1.663-3.386-3.359-3.48-2.979-.167-4.507 4.415-7.86 4.379-3.354.036-4.883-4.546-7.86-4.38-1.697.096-3.116 1.929-3.36 3.48-.308 1.942.611 4.606 1.68 5.64 1.103 1.068 2.821.93 4.68 1.2 2.036.296 3.797.882 4.858 1.948 0 .038 0 .038 0 0 1.064-1.065 2.824-1.651 4.861-1.947 1.857-.271 3.576-.133 4.68-1.2 1.07-1.034 1.988-3.698 1.68-5.64m13.93 28.056h-.242c-2.306-7.694-2.925-17.074-9.358-20.64-1.189 3.355-4.109 4.893-7.439 6.359-2.118.934-4.547 2.558-6.602 2.64-.496.02-1.049.033-1.5-.314-.45.348-1.003.335-1.5.315-2.054-.083-4.484-1.707-6.602-2.641-3.33-1.467-6.25-3.004-7.438-6.36-6.435 3.566-7.054 12.947-9.36 20.64H.6c-.316-.682-.399-1.6-.599-2.4 0-1.92.543-21.462 1.92-28.44 1.24-6.288 6.077-10.83 10.8-13.8C16.01 2.77 21.226 0 25.74 0c4.513 0 9.73 2.77 13.02 4.838 4.722 2.97 9.56 7.512 10.8 13.8 1.376 6.978 1.92 26.52 1.92 28.44-.202.8-.285 1.718-.6 2.4" fill="#826550"/></g></svg>