<svg xmlns="http://www.w3.org/2000/svg" height="130.241" width="76"><defs><clipPath id="a" clipPathUnits="userSpaceOnUse"><path d="M0 97.681h57V0H0z"/></clipPath></defs><g clip-path="url(#a)" transform="matrix(1.33333 0 0 -1.33333 0 130.24)"><path d="M34.44 72.722c-2.793-1.174-5.354.709-5.879.719-.018 0-.043-.006-.06-.006-.018 0-.042.007-.06.006-.527-.01-3.087-1.894-5.88-.72-.785 3.584 2.396 4.043 5.94 3.905 3.544.138 6.724-.322 5.94-3.904m16.68 9.719c-.396 5.453-.61 10.852-2.52 15.24-.765 0-1.53-7.313-2.28-10.92-1.478-7.14-3.715-8.283-4.44-8.28-.859 3.857-4.384 4.24-7.8 5.88-1.207.579-2.31 1.05-3.602 1.199-.666.077-1.287-.102-1.979-.116-.69.015-1.314.193-1.98.116-1.29-.15-2.394-.62-3.6-1.2-3.418-1.638-6.943-2.021-7.802-5.88-.725-.003-2.963 1.14-4.44 8.28-.75 3.607-1.514 10.92-2.279 10.92-1.91-4.388-2.125-9.786-2.52-15.24C5 58.904 0 46.154 0 35.283 0 9.215 11.708 0 28.5 0 45.291 0 57 9.215 57 35.282c.001 10.87-4.999 23.62-5.879 47.159" fill="#826550"/></g></svg>