<svg xmlns="http://www.w3.org/2000/svg" height="91.519" width="76.908"><defs><clipPath id="a" clipPathUnits="userSpaceOnUse"><path d="M0 68.64h57.681V0H0z"/></clipPath></defs><g clip-path="url(#a)" transform="matrix(1.33333 0 0 -1.33333 0 91.52)"><path d="M28.842 42.694c-2.54-.037-5.066.094-7.16.505.663 2.052 4.034 1.56 7.08 1.56h.159c3.046 0 6.417.492 7.079-1.56-2.094-.41-4.62-.542-7.158-.505M51.6 46.44c.12 1.696.474 3.51.72 5.4.704 5.426 1.596 11.67-.121 16.8h-.24c-1.322-3.743-1.26-8.347-2.158-12.36-.664-2.962-1.773-5.653-3.24-7.56-.53-.688-1.06-1.546-1.92-1.8-.663 3.921-4.283 4.942-7.681 6.36-2.13.888-3.971 2.016-6.118 2.16-.79.052-1.47-.188-2-.23-.532.043-1.211.283-2 .23-2.148-.145-3.99-1.272-6.12-2.16-3.396-1.418-7.017-2.439-7.68-6.36-.861.254-1.391 1.112-1.921 1.8-1.466 1.907-2.574 4.598-3.238 7.56-.9 4.013-.836 8.617-2.16 12.36h-.24c-1.718-5.13-.826-11.374-.12-16.8.245-1.89.597-3.704.718-5.4.792-11.052-6.95-23.12-6-28.92C1.01 9.99 8.478 8.123 14.24 5.16 18.588 2.923 22.554.21 27.563 0h2.556c5.01.21 8.976 2.924 13.32 5.16 5.765 2.964 13.23 4.83 14.16 12.36.953 5.8-6.791 17.867-6 28.92" fill="#826550"/></g></svg>