<svg xmlns="http://www.w3.org/2000/svg" height="139.708" width="59.544"><defs><clipPath id="a" clipPathUnits="userSpaceOnUse"><path d="M0 104.781h44.658V0H0z"/></clipPath></defs><g clip-path="url(#a)" transform="matrix(1.33333 0 0 -1.33333 0 139.708)"><path d="M22.33 76.63c-3.397 0-6.689-.182-10.143-.528 1.135 1.754 8.992 3.24 10.142 3.449 1.15-.21 9.006-1.695 10.141-3.45-3.454.347-6.746.53-10.14.53m21.06 28.15h-.119c-2.816-21.525-5.38-22.56-6.96-22.68-1.427-.11-3.644 1.772-4.92 2.52-1.49.873-4.079 2.545-9.062 2.545s-7.572-1.673-9.062-2.545c-1.277-.748-3.494-2.63-4.919-2.52-1.58.12-4.144 1.155-6.959 22.68h-.12c-2.072-12.208-1.56-50.203 1.2-63.6 2.61-18.52 10.11-35.104 13.44-39.6C16.59.544 19.44.017 22.328 0c2.887.016 5.737.543 6.421 1.582 3.33 4.495 10.83 21.08 13.44 39.6 2.757 13.396 3.272 51.39 1.2 63.599" fill="#826550"/></g></svg>