<svg xmlns="http://www.w3.org/2000/svg" height="186.055" width="188.888"><defs><clipPath id="a" clipPathUnits="userSpaceOnUse"><path d="M0 139.541h141.666V0H0z"/></clipPath></defs><g clip-path="url(#a)" transform="matrix(1.33333 0 0 -1.33333 0 186.055)"><path d="M71.833 118.078v20.463a1 1 0 11-2 0v-20.463c.334.007.665.025 1 .025.335 0 .666-.018 1-.025m-26.065-6.973c.568.345 1.149.673 1.733.996L37.263 129.8a1 1 0 11-1.73-1.002zm-35.266-6.291a.998.998 0 01.362-1.365l17.682-10.272c.323.583.652 1.163.999 1.731l-17.677 10.268a.999.999 0 01-1.366-.362m95.908 26.206a.998.998 0 01-1.366-.362l-10.804-18.6a49.492 49.492 0 001.731-1l10.801 18.597a.997.997 0 01-.362 1.366m25.372-27.148a.998.998 0 01.364 1.366.994.994 0 01-1.366.364l-18.613-10.767c.345-.568.674-1.15.997-1.734zM22.5 69.77c0 .336.019.667.025 1H1a1 1 0 110-2h21.525c-.006.335-.025.666-.025 1m118.166 1h-21.525c.006-.333.025-.664.025-1 0-.334-.019-.665-.025-1h21.525a1 1 0 110 2m-9.864-34.677l-17.682 10.27a45.493 45.493 0 00-1-1.73l17.678-10.27a1 1 0 011.004 1.73M9.884 35.668a.998.998 0 01-.364-1.366.995.995 0 011.366-.364l18.613 10.767a49.31 49.31 0 00-.997 1.734zm86.014-7.232a47.737 47.737 0 00-1.733-.997l10.238-17.698a.998.998 0 111.73 1.002zM34.894 9.887a.998.998 0 111.729-1.004l10.803 18.6c-.583.324-1.162.653-1.73 1zm34.939 11.576V1a1 1 0 112 0v20.463c-.334-.007-.665-.025-1-.025-.335 0-.666.018-1 .025m1 45.64a2.67 2.67 0 00-2.667 2.668 2.67 2.67 0 002.667 2.666 2.67 2.67 0 002.667-2.666 2.67 2.67 0 00-2.667-2.668m-4.451 6.169c-.017-.023-.032-.045-.049-.066l.049.066m-.426-.625c-.007-.012-.015-.023-.021-.036l.021.036m9.78-.043l-.021.035.021-.035m-.393.589c-.02.025-.037.052-.058.077.021-.025.038-.052.058-.077m29.401 14.462c.717.415.962 1.333.548 2.05a1.501 1.501 0 01-2.05.547L74.811 73.805a5.648 5.648 0 01-3.978 1.632 5.649 5.649 0 01-3.971-1.626L46.52 85.627a1.5 1.5 0 11-1.508-2.593l20.346-11.82a5.684 5.684 0 01-.192-1.445 5.667 5.667 0 1111.334 0c0 .498-.07.977-.19 1.436z" fill="#fff"/></g></svg>