<svg xmlns="http://www.w3.org/2000/svg" xmlns:xlink="http://www.w3.org/1999/xlink"><defs><clipPath id="a" clipPathUnits="userSpaceOnUse"><path d="M0 94.164h94.944V0H0z"/></clipPath><clipPath id="a" clipPathUnits="userSpaceOnUse"><path d="M0 88.62h94.161V0H0z"/></clipPath><clipPath id="a" clipPathUnits="userSpaceOnUse"><path d="M0 91.991h94.163V0H0z"/></clipPath><clipPath id="a" clipPathUnits="userSpaceOnUse"><path d="M0 49.479h51.479V0H0z"/></clipPath><clipPath id="a" clipPathUnits="userSpaceOnUse"><path d="M0 68.64h57.681V0H0z"/></clipPath><clipPath id="a" clipPathUnits="userSpaceOnUse"><path d="M0 78.489h62.397V0H0z"/></clipPath><clipPath id="a" clipPathUnits="userSpaceOnUse"><path d="M0 97.681h57V0H0z"/></clipPath><clipPath id="a" clipPathUnits="userSpaceOnUse"><path d="M0 104.781h44.658V0H0z"/></clipPath><clipPath id="a" clipPathUnits="userSpaceOnUse"><path d="M0 21.21h22.068V0H0z"/></clipPath><clipPath id="a" clipPathUnits="userSpaceOnUse"><path d="M0 139.541h141.666V0H0z"/></clipPath><filter id="a" x="266" y="334" width="15" height="17" filterUnits="userSpaceOnUse"><feFlood result="flood"/><feComposite result="composite" operator="in" in2="SourceGraphic"/><feBlend result="blend" in2="SourceGraphic"/></filter><clipPath id="a" clipPathUnits="userSpaceOnUse"><path d="M0 153.048h369.457V0H0z"/></clipPath><clipPath id="a" clipPathUnits="userSpaceOnUse"><path d="M0 30.04h225.813V0H0z"/></clipPath><clipPath id="a" clipPathUnits="userSpaceOnUse"><path d="M0 100.877h369.457V0H0z"/></clipPath><clipPath id="a" clipPathUnits="userSpaceOnUse"><path d="M0 12.9h44.978V0H0z"/></clipPath><clipPath id="a" clipPathUnits="userSpaceOnUse"><path d="M0 20h21V0H0z"/></clipPath><filter id="a" x="266.031" y="279" width="14.969" height="15" filterUnits="userSpaceOnUse"><feFlood result="flood"/><feComposite result="composite" operator="in" in2="SourceGraphic"/><feBlend result="blend" in2="SourceGraphic"/></filter></defs><symbol id="advantage-1"><g clip-path="url(#a)" transform="matrix(1.33333 0 0 -1.33333 0 125.551)" fill-rule="evenodd"><path d="M90.284 65.774a47.233 47.233 0 01-8.508 13.097 333.208 333.208 0 00-1.975-3.78 43.055 43.055 0 006.421-10.012c1.34.242 2.695.467 4.062.695M90.009 50.6c.094-1.162.155-2.333.155-3.519 0-23.793-19.288-43.08-43.082-43.08-.786 0-1.566.023-2.342.064.134-.57.228-1.176.219-1.84A6.581 6.581 0 0044.555.07C45.392.025 46.234 0 47.082 0c25.96 0 47.082 21.12 47.082 47.081 0 2.09-.151 4.142-.416 6.16a38.596 38.596 0 00-3.74-2.642M4 47.081c0 23.794 19.288 43.082 43.082 43.082a42.872 42.872 0 0021.568-5.792 375.08 375.08 0 003.362 2.623 46.793 46.793 0 01-24.93 7.17C21.121 94.163 0 73.041 0 47.08 0 27.275 12.3 10.298 29.657 3.356c-.4 1.5-.562 3.068-.569 4.582C14.283 14.756 4 29.713 4 47.081"/><path d="M36.787 19.17c-1.857 9.002 7.01 16.95 11.896 9.252.26-7.42-6.18-15.77-11.896-9.252m10.295 28.913a2.583 2.583 0 100-5.167 2.583 2.583 0 000 5.167M38.77 9.257c7.738 2.722 16.312 9.663 14.54 19.826-.899 5.146-4.48 5-7.27 9.252 14.437 11.998 24.212 28.657 33.043 46.26H77.1c-7.446-5.66-21.91-16.982-28.417-26.434-2.603-3.78-4.593-9.313-7.27-13.878-4.542-7.745-15.124-21.231-6.608-31.061C33.425 8.602 33.6.834 38.77.666c3.268 1.727-1.385 4.604 0 8.59"/><path d="M55.953 42.96c13.963 5.203 30.578 7.754 38.99 18.505-9.414-1.38-18.118-3.47-27.755-4.626-2.135-6.235-7.031-9.711-11.235-13.878m-38.331 3.965c-5.123 10.84 12.89 11.066 14.54 5.287 2.177-7.632-9.099-8.032-14.54-5.287m-5.287 7.27c-4.223-12.249 8.425-15.99 21.808-13.878 3.784 4.815 5.85 9.964 1.983 15.86-4.893 7.461-20.91 6.373-23.79-1.982"/></g></symbol><symbol id="advantage-2"><g clip-path="url(#a)" transform="matrix(1.33333 0 0 -1.33333 0 118.16)"><path d="M87.19 66.196a429.552 429.552 0 01-1.68-5.223 42.782 42.782 0 004.651-19.435c0-14.24-6.95-26.885-17.634-34.733a12.82 12.82 0 003.14-2.666c11.24 8.605 18.494 22.151 18.494 37.4a46.85 46.85 0 01-6.972 24.657M9.516 18.283c.446 0 .896-.015 1.345-.024a42.805 42.805 0 00-6.86 23.28C4 65.293 23.325 84.62 47.08 84.62c6.78 0 13.198-1.58 18.911-4.383a22.236 22.236 0 002.44 3.26 46.863 46.863 0 01-21.35 5.123C21.078 88.62 0 67.541 0 41.538a46.835 46.835 0 016.235-23.402 33.34 33.34 0 003.281.147"/><path d="M37.67 41.435c.684 11.704 15.366 11.688 25.648 8.548.103-4.72-.516-10.162 1.315-13.152-7.042.852-17.078 4.4-26.963 4.604M53.454 6.579c.437 6.143-.872 14.024.657 19.07 4.528.077 9.56-.353 13.153.659 8.174 14.845 12.026 34.008 18.416 50.64v2.63c-.675 3.055-3.753 3.703-6.578 4.605h-.657c-10.6-3.431-11.957-16.104-14.466-27.623-15.795 4.144-32.3.06-32.885-15.125-4.528-.076-7.984-1.225-9.865-3.946-.572-6.71 1.569-10.705 6.577-11.84-1.238-5.337-3.641-9.511-7.234-12.492C14.167 12.544 4.936 14.76 1.5 11.18V8.55c3.15-3.86 12.855-1.175 19.072-1.971 6.593 3.929 8.458 12.587 11.838 19.728 4.674-.367 10.865.78 14.468-.656V5.92C39.052 5.416 31.432 4.706 27.806 0h44.72c-3.254 5.294-12.471 4.626-19.072 6.579"/></g></symbol><symbol id="advantage-3"><g clip-path="url(#a)" transform="matrix(1.33333 0 0 -1.33333 0 122.655)"><path d="M47.082 83.818a9.105 9.105 0 009.105-9.106 9.106 9.106 0 10-9.105 9.106"/><path d="M60.501 38.823l-26.839-26.84V27.06L60.501 53.9zm0-28.717H47.027l13.474 13.475zM33.662 55.5h13.199L33.662 42.302zm33.796 10.106H26.705a2.825 2.825 0 01-2.817-2.817v-4.47a2.826 2.826 0 012.817-2.818h.828V10.107h-.828a2.825 2.825 0 01-2.817-2.818V2.82A2.825 2.825 0 0126.705 0h40.753a2.825 2.825 0 012.817 2.818V7.29a2.827 2.827 0 01-2.817 2.818h-.826V55.5h.826a2.825 2.825 0 012.817 2.818v4.47a2.825 2.825 0 01-2.817 2.818"/><path d="M47.081 91.991c-26.002 0-47.08-21.079-47.08-47.08C0 29.481 7.42 15.787 18.887 7.2v.088c0 1.505.438 2.903 1.177 4.098C10.277 19.29 4 31.378 4 44.91c0 23.755 19.326 43.081 43.081 43.081 23.754 0 43.081-19.326 43.081-43.08 0-13.53-6.275-25.619-16.062-33.524a7.765 7.765 0 001.177-4.098v-.086c11.466 8.587 18.886 22.28 18.886 37.707 0 26.002-21.08 47.081-47.082 47.081"/></g></symbol><symbol id="beard-1"><g clip-path="url(#a)" transform="matrix(1.33333 0 0 -1.33333 0 65.971)"><path d="M36.95 21.423c-.245-1.553-1.663-3.386-3.359-3.48-2.979-.167-4.507 4.415-7.86 4.379-3.354.036-4.883-4.546-7.86-4.38-1.697.096-3.116 1.929-3.36 3.48-.308 1.942.611 4.606 1.68 5.64 1.103 1.068 2.821.93 4.68 1.2 2.036.296 3.797.882 4.858 1.948 0 .038 0 .038 0 0 1.064-1.065 2.824-1.651 4.861-1.947 1.857-.271 3.576-.133 4.68-1.2 1.07-1.034 1.988-3.698 1.68-5.64m13.93 28.056h-.242c-2.306-7.694-2.925-17.074-9.358-20.64-1.189 3.355-4.109 4.893-7.439 6.359-2.118.934-4.547 2.558-6.602 2.64-.496.02-1.049.033-1.5-.314-.45.348-1.003.335-1.5.315-2.054-.083-4.484-1.707-6.602-2.641-3.33-1.467-6.25-3.004-7.438-6.36-6.435 3.566-7.054 12.947-9.36 20.64H.6c-.316-.682-.399-1.6-.599-2.4 0-1.92.543-21.462 1.92-28.44 1.24-6.288 6.077-10.83 10.8-13.8C16.01 2.77 21.226 0 25.74 0c4.513 0 9.73 2.77 13.02 4.838 4.722 2.97 9.56 7.512 10.8 13.8 1.376 6.978 1.92 26.52 1.92 28.44-.202.8-.285 1.718-.6 2.4" fill="#826550"/></g></symbol><symbol id="beard-2"><g clip-path="url(#a)" transform="matrix(1.33333 0 0 -1.33333 0 91.52)"><path d="M28.842 42.694c-2.54-.037-5.066.094-7.16.505.663 2.052 4.034 1.56 7.08 1.56h.159c3.046 0 6.417.492 7.079-1.56-2.094-.41-4.62-.542-7.158-.505M51.6 46.44c.12 1.696.474 3.51.72 5.4.704 5.426 1.596 11.67-.121 16.8h-.24c-1.322-3.743-1.26-8.347-2.158-12.36-.664-2.962-1.773-5.653-3.24-7.56-.53-.688-1.06-1.546-1.92-1.8-.663 3.921-4.283 4.942-7.681 6.36-2.13.888-3.971 2.016-6.118 2.16-.79.052-1.47-.188-2-.23-.532.043-1.211.283-2 .23-2.148-.145-3.99-1.272-6.12-2.16-3.396-1.418-7.017-2.439-7.68-6.36-.861.254-1.391 1.112-1.921 1.8-1.466 1.907-2.574 4.598-3.238 7.56-.9 4.013-.836 8.617-2.16 12.36h-.24c-1.718-5.13-.826-11.374-.12-16.8.245-1.89.597-3.704.718-5.4.792-11.052-6.95-23.12-6-28.92C1.01 9.99 8.478 8.123 14.24 5.16 18.588 2.923 22.554.21 27.563 0h2.556c5.01.21 8.976 2.924 13.32 5.16 5.765 2.964 13.23 4.83 14.16 12.36.953 5.8-6.791 17.867-6 28.92" fill="#826550"/></g></symbol><symbol id="beard-3"><g clip-path="url(#a)" transform="matrix(1.33333 0 0 -1.33333 0 104.652)"><path d="M33.237 51.728c-.687.135-3.394.135-4.08 0-1.732-.34-5.76-.988-5.76 1.08 0 1.068 6.72 2.295 7.8 2.295s7.801-1.228 7.802-2.295c0-2.068-4.029-1.42-5.762-1.08m29.16-15.24c0 5.213-2.367 7.775-3.598 9.961-.906 1.605-3.977 10.752-4.2 17.64-.067 4.905-1.693 12.446-2.88 14.4-.865 0-1.522-7.782-2.28-11.64-1.429-7.042-3.766-8.933-4.439-9-.758 2.81-4.114 7.364-13.677 7.726-.048.015-.083.028-.125.042-.043-.013-.078-.026-.126-.042-9.562-.362-12.918-4.917-13.675-7.726-.674.067-3.01 1.958-4.438 9-.76 3.859-1.416 11.64-2.28 11.64-1.189-1.954-2.814-9.495-2.88-14.4-.226-6.888-3.294-16.033-4.2-17.64C2.366 44.264 0 41.703 0 36.49c0-3.744 5.2-7.203 5.638-11.4.125-1.221-.03-2.348.12-3.36C7.761 4.245 23.626-.002 31.198-.002c7.572 0 23.437 4.246 25.44 21.73.151 1.012-.005 2.139.12 3.36.44 4.197 5.64 7.654 5.64 11.4" fill="#826550"/></g></symbol><symbol id="beard-4"><g clip-path="url(#a)" transform="matrix(1.33333 0 0 -1.33333 0 130.24)"><path d="M34.44 72.722c-2.793-1.174-5.354.709-5.879.719-.018 0-.043-.006-.06-.006-.018 0-.042.007-.06.006-.527-.01-3.087-1.894-5.88-.72-.785 3.584 2.396 4.043 5.94 3.905 3.544.138 6.724-.322 5.94-3.904m16.68 9.719c-.396 5.453-.61 10.852-2.52 15.24-.765 0-1.53-7.313-2.28-10.92-1.478-7.14-3.715-8.283-4.44-8.28-.859 3.857-4.384 4.24-7.8 5.88-1.207.579-2.31 1.05-3.602 1.199-.666.077-1.287-.102-1.979-.116-.69.015-1.314.193-1.98.116-1.29-.15-2.394-.62-3.6-1.2-3.418-1.638-6.943-2.021-7.802-5.88-.725-.003-2.963 1.14-4.44 8.28-.75 3.607-1.514 10.92-2.279 10.92-1.91-4.388-2.125-9.786-2.52-15.24C5 58.904 0 46.154 0 35.283 0 9.215 11.708 0 28.5 0 45.291 0 57 9.215 57 35.282c.001 10.87-4.999 23.62-5.879 47.159" fill="#826550"/></g></symbol><symbol id="beard-5"><g clip-path="url(#a)" transform="matrix(1.33333 0 0 -1.33333 0 139.708)"><path d="M22.33 76.63c-3.397 0-6.689-.182-10.143-.528 1.135 1.754 8.992 3.24 10.142 3.449 1.15-.21 9.006-1.695 10.141-3.45-3.454.347-6.746.53-10.14.53m21.06 28.15h-.119c-2.816-21.525-5.38-22.56-6.96-22.68-1.427-.11-3.644 1.772-4.92 2.52-1.49.873-4.079 2.545-9.062 2.545s-7.572-1.673-9.062-2.545c-1.277-.748-3.494-2.63-4.919-2.52-1.58.12-4.144 1.155-6.959 22.68h-.12c-2.072-12.208-1.56-50.203 1.2-63.6 2.61-18.52 10.11-35.104 13.44-39.6C16.59.544 19.44.017 22.328 0c2.887.016 5.737.543 6.421 1.582 3.33 4.495 10.83 21.08 13.44 39.6 2.757 13.396 3.272 51.39 1.2 63.599" fill="#826550"/></g></symbol><symbol id="beard-icon"><g clip-path="url(#a)" transform="matrix(1.33333 0 0 -1.33333 0 28.28)"><path d="M15.839 9.184c-.104-.666-.713-1.451-1.438-1.492-1.278-.071-1.934 1.892-3.371 1.878-1.438.014-2.092-1.95-3.37-1.878-.726.04-1.334.827-1.438 1.492-.133.833.262 1.975.72 2.417.472.459 1.209.4 2.004.515.874.127 1.629.378 2.084.835 0 .016 0 .016 0 0 .456-.457 1.21-.708 2.083-.835.797-.116 1.534-.057 2.006-.515.459-.442.853-1.584.72-2.417M21.81 21.21h-.104c-.99-3.298-1.255-7.32-4.012-8.848-.51 1.438-1.761 2.097-3.188 2.726-.907.4-1.95 1.096-2.831 1.132-.213.008-.45.014-.643-.135-.193.149-.43.144-.642.135-.88-.036-1.923-.731-2.83-1.132-1.428-.63-2.68-1.288-3.19-2.726-2.755 1.53-3.02 5.551-4.01 8.848H.257c-.135-.292-.171-.686-.257-1.03 0-.822.234-9.2.823-12.19.532-2.696 2.606-4.643 4.629-5.916C6.862 1.188 9.099 0 11.034 0c1.934 0 4.17 1.189 5.58 2.075 2.027 1.273 4.1 3.22 4.63 5.916.592 2.99.824 11.368.824 12.19-.085.344-.121.738-.257 1.03" fill="#6a4d38"/></g></symbol><symbol id="clock"><g clip-path="url(#a)" transform="matrix(1.33333 0 0 -1.33333 0 186.055)"><path d="M71.833 118.078v20.463a1 1 0 11-2 0v-20.463c.334.007.665.025 1 .025.335 0 .666-.018 1-.025m-26.065-6.973c.568.345 1.149.673 1.733.996L37.263 129.8a1 1 0 11-1.73-1.002zm-35.266-6.291a.998.998 0 01.362-1.365l17.682-10.272c.323.583.652 1.163.999 1.731l-17.677 10.268a.999.999 0 01-1.366-.362m95.908 26.206a.998.998 0 01-1.366-.362l-10.804-18.6a49.492 49.492 0 001.731-1l10.801 18.597a.997.997 0 01-.362 1.366m25.372-27.148a.998.998 0 01.364 1.366.994.994 0 01-1.366.364l-18.613-10.767c.345-.568.674-1.15.997-1.734zM22.5 69.77c0 .336.019.667.025 1H1a1 1 0 110-2h21.525c-.006.335-.025.666-.025 1m118.166 1h-21.525c.006-.333.025-.664.025-1 0-.334-.019-.665-.025-1h21.525a1 1 0 110 2m-9.864-34.677l-17.682 10.27a45.493 45.493 0 00-1-1.73l17.678-10.27a1 1 0 011.004 1.73M9.884 35.668a.998.998 0 01-.364-1.366.995.995 0 011.366-.364l18.613 10.767a49.31 49.31 0 00-.997 1.734zm86.014-7.232a47.737 47.737 0 00-1.733-.997l10.238-17.698a.998.998 0 111.73 1.002zM34.894 9.887a.998.998 0 111.729-1.004l10.803 18.6c-.583.324-1.162.653-1.73 1zm34.939 11.576V1a1 1 0 112 0v20.463c-.334-.007-.665-.025-1-.025-.335 0-.666.018-1 .025m1 45.64a2.67 2.67 0 00-2.667 2.668 2.67 2.67 0 002.667 2.666 2.67 2.67 0 002.667-2.666 2.67 2.67 0 00-2.667-2.668m-4.451 6.169c-.017-.023-.032-.045-.049-.066l.049.066m-.426-.625c-.007-.012-.015-.023-.021-.036l.021.036m9.78-.043l-.021.035.021-.035m-.393.589c-.02.025-.037.052-.058.077.021-.025.038-.052.058-.077m29.401 14.462c.717.415.962 1.333.548 2.05a1.501 1.501 0 01-2.05.547L74.811 73.805a5.648 5.648 0 01-3.978 1.632 5.649 5.649 0 01-3.971-1.626L46.52 85.627a1.5 1.5 0 11-1.508-2.593l20.346-11.82a5.684 5.684 0 01-.192-1.445 5.667 5.667 0 1111.334 0c0 .498-.07.977-.19 1.436z" fill="#fff"/></g></symbol><symbol id="locked"><path data-name="Locked 2" d="M279 339.451a5.5 5.5 0 00-5.611-5.451 5.366 5.366 0 00-5.453 5.453h-.63a1 1 0 00-1.258 1.079v9.05a1.048 1.048 0 001.139 1.418h12.568a1.382 1.382 0 001.245-1.42v-8.61a1.343 1.343 0 00-1.247-1.532zm-1.187-.013a4.284 4.284 0 00-8.564 0h8.564zm-4.645 2.035a2.01 2.01 0 011.962 2.054 2.054 2.054 0 01-1.263 1.919c-.1.041.661 3.541.661 3.541l-2.64.019a20.682 20.682 0 00.647-3.535 2.05 2.05 0 01-1.328-1.944 2.009 2.009 0 011.965-2.054z" transform="translate(-266 -334)" fill="#d1d1d1" fill-rule="evenodd" filter="url(#a)"/></symbol><symbol id="login"><g fill="#fff"><path d="M0 9.333h9.346v-3.92l5.268 5.267-5.268 5.2v-3.8L0 12.027V9.333"/><path d="M9.346 0v2.667h9.361v15.987h-9.36v2.68h11.986V0H9.346"/></g></symbol><symbol id="logo-desktop"><g clip-path="url(#a)" transform="matrix(1.33333 0 0 -1.33333 0 204.064)"><path d="M114.894 143.263l2.873 4.927c2.602 4.482 5.92 1.847 4.14-1.505-1.367-2.567-3.386-3.353-7.012-3.422m-3.833-16.217c-2.12 0-3.798.479-5.13 1.232.612.718 1.23 1.607 1.776 2.532l5.988 10.367.957-.103c8.348-1.746 5.031-14.028-3.59-14.028m8.791 14.575c7.187 2.429 7.733 11.427.65 11.427-1.947 0-4.274-1.37-5.882-4.174l-9.58-16.56a13.77 13.77 0 00-1.37-2.018c-2.463 3.387-1.742 8.45 1.712 10.674l-1.437 1.813c-7.458-4.755-5.27-18.475 7.184-18.475 10.64 0 15.567 12.763 8.724 17.313" fill="#fff"/><path d="M236.18 133.854h-.17c-1.162 0-2.088-.958-2.088-2.121 0-.445.138-.855.343-1.198l-.034-.068c-1.676-2.873-5.747-2.326-3.626 1.369l2.703 4.688 1.71 2.908c2.497 4.242 5.919 2.566 3.764-1.129zm-73.08-1.778c-.922.684-1.505 1.778-1.505 3.216 0 2.532 2.465 6.671 4.482 6.671.787 0 1.334-.582 1.334-1.54 0-.581-.205-1.3-.684-2.121zm-3.728-3.456c-.788 0-1.437.479-1.437 1.369 0 .513.206 1.094.617 1.847l1.266 2.189c.274-1.539.958-2.874 2.258-3.694-.72-1.163-1.813-1.711-2.704-1.711m-26.788 4.858c-2.155-3.386-4.277-4.995-5.75-4.995-.786 0-1.23.547-.41 1.95l4.964 8.655c1.915 3.319 5.712 2.463 3.968-.752zm45.606 5.611c2.053 3.524 5.678 2.942 3.557-.752l-.512-.89c-1.711-2.908-4.004-2.84-5.337-2.361zm81.015-4.995l-.237-.274c-1.985-2.326-4.347-4.243-6.502-4.995.58.924 1.027 1.916 1.472 2.669l3.934 6.739c3.32 5.645-2.052 7.527-5.68 4.276l.719 1.233h-3.558l-5.564-9.655a.11.11 0 00-.011.006l-.241-.274c-1.607-1.745-3.592-2.6-5.371-2.634l3.354 5.781c2.155 3.729.172 7.253-3.183 7.253-2.736 0-4.856-1.095-6.91-4.654l-1.745-3.044-1.452-2.486-.191-.217c-2.565-2.977-5.062-5.337-6.637-5.337-.787 0-1.231.547-.411 1.95l5.132 8.998c1.539 2.703.07 4.653-1.916 4.653-1.54 0-3.182-.855-4.961-2.704l5.68 9.888h-3.558l-9.923-17.215-.204-.233a22.126 22.126 0 00-4.278-3.866c1.132 3.387.893 8.587 3.08 13.137l-2.67 1.438c-1.47-2.02-4.684-6.672-7.901-10.435l-.24-.274c-2.565-2.977-5.064-5.337-6.636-5.337-.787 0-1.232.547-.411 1.95l3.558 6.227c1.232 2.155.65 3.421-.513 4.824l-1.985 2.394c-.513.651-.513 1.369.205 2.053l-1.847 2.019c-2.02-1.813-2.19-3.832-.924-5.474l.308-.411c-1.574-2.223-3.695-5.234-6.021-7.971l-.238-.274c-2.567-2.977-5.852-5.337-8.35-5.337-2.188 0-3.488 1.368-1.846 4.242l.34.616c2.293-.958 6.606-.512 9.274 4.105l.513.89c1.916 3.284.068 5.748-2.841 5.748-2.872 0-5.165-1.505-6.671-4.106l-3.447-5.915-.214-.244c-1.608-1.779-3.626-2.6-5.371-2.634l3.354 5.781c.89 1.574 1.333 2.942 1.333 4.071 0 1.813-1.23 3.182-3.217 3.182-.853 0-1.607-.308-2.326-.787l4.518 7.835h-3.627l-9.975-17.234-.187-.214c-2.567-2.977-5.063-5.337-6.638-5.337-.786 0-1.232.547-.41 1.95l3.557 6.227c1.232 2.155.65 3.421-.512 4.824L150 143.875c-.513.651-.513 1.369.205 2.053l-1.846 2.019c-2.021-1.813-2.191-3.832-.925-5.474l.309-.411c-1.575-2.223-3.696-5.234-6.021-7.971l-.24-.274c-2.566-2.977-5.063-5.337-6.636-5.337-.788 0-1.233.547-.412 1.95l5.749 10.058h-2.021c.138 1.506-1.401 3.593-3.728 3.593-1.916 0-4.583-1.505-6.09-4.106l-4.994-8.621c-1.507-2.635-.444-5.064 2.429-5.064 1.436 0 3.215.924 4.926 2.327.17-1.369 1.267-2.327 3.08-2.327 2.94 0 6.329 3.147 9.272 6.569 1.71 1.984 3.045 3.763 5.885 7.629l.478-.582c.445-.582.615-1.3.205-2.018l-3.763-6.535c-1.504-2.635-.444-5.064 2.428-5.064 2.064 0 4.345 1.549 6.537 3.652v-.025c0-2.429 1.814-3.797 4.106-3.797 1.98 0 4.275 1.026 6.056 3.318.27-.034.51-.034.786-.034 1.32 0 3.118.504 4.724 1.404-.186-2.568 1.677-4.518 4.822-4.518 4.037 0 8.039 3.147 10.98 6.569 1.713 1.984 3.046 3.763 5.886 7.629l.478-.582c.445-.582.616-1.3.205-2.018l-3.763-6.535c-1.506-2.635-.445-5.064 2.428-5.064 2.944 0 6.33 3.147 9.273 6.569h-.001c2.019 2.326 3.799 4.824 5.063 6.5-1.401-3.696-.65-10.333-4.036-10.333-1.196 0-1.677 1.3-1.677 1.3l-2.224-1.164s.649-2.874 3.9-2.874c.342 0 .649.034.99.068.037 0 .07.034.105.034 1.872.248 3.734 1.136 5.466 2.364l-1.224-2.124h3.593l5.404 9.408c5.476 6.876 7.904 5.987 6.364 3.353l-4.62-8.04c-1.504-2.635-.443-5.064 2.43-5.064 2.068 0 4.355 1.556 6.552 3.667-.008-4.537 6.294-5.422 10.145-.553h.789c1.073 0 2.463.334 3.81.944l-6.48-11.242h3.593l10.64 18.509c3.969 5.406 6.468 3.421 5.544 1.813l-5.37-9.306c-.583-1.027-1.918-1.334-2.568 0l-2.018-.958s.649-2.874 3.899-2.874h.206c5.166.103 8.553 3.182 11.46 6.569-.208.556-.823 1.104-1.338 1.24M11.433 79.772l-5.718-5.715L0 79.773l5.717 5.716zm351.987.016l-5.716-5.716-5.716 5.718 5.717 5.715z" fill="#fff"/><path d="M46.795 79.568h2.083v8.324h3.275v2.084h-5.358zm14.893-1.528v12.684c0 1.795-1.068 3.325-2.564 4.07a4.47 4.47 0 00.48-1.987V80.121a4.473 4.473 0 00-1.662-3.51c.924-.986 1.662-2.095 1.662-3.695V58.812c0-2.463-2.094-4.557-4.558-4.557H41.487v-2.084H57.13c2.464 0 4.558 2.094 4.558 4.557v14.105c0 1.602-.738 2.71-1.662 3.694a4.475 4.475 0 011.662 3.512" fill="#636466"/><path d="M46.795 61.708h2.083v8.385h3.275v2.084h-5.358zm33.012 0h2.083v26.184h3.274v2.084h-5.357z" fill="#636466"/><path d="M92.136 94.794c.298-.602.479-1.27.479-1.986V58.815c0-2.463-2.093-4.558-4.556-4.558H76.975a4.49 4.49 0 00-1.987.479c.744-1.496 2.274-2.563 4.07-2.563h11.085c2.463 0 4.556 2.094 4.556 4.558v33.993c0 1.795-1.068 3.325-2.563 4.07m20.68-15.226h2.083v8.324h3.276v2.084h-5.359zm12.245-9.043a4.467 4.467 0 012.586 4.063v16.135a4.556 4.556 0 01-2.566 4.098 4.558 4.558 0 00.483-2.014V76.672a4.464 4.464 0 00-2.585-4.063l3.078-18.353H120.4l.35-2.084h7.392zm-9.411 1.652h-2.834v-17.92h-5.306v-2.084h7.39v17.92h1.1zm29.195-10.469h2.083v26.184h3.274v2.084h-5.357z" fill="#636466"/><path d="M157.173 94.794c.299-.602.48-1.27.48-1.986V58.815c0-2.463-2.093-4.558-4.556-4.558H142.01c-.717 0-1.385.184-1.985.479.743-1.496 2.272-2.563 4.068-2.563h11.086c2.463 0 4.556 2.094 4.556 4.558v33.993c0 1.795-1.067 3.325-2.563 4.07m20.683-33.086h2.083v26.184h3.275v2.084h-5.358z" fill="#636466"/><path d="M190.185 94.794c.298-.602.479-1.27.479-1.986V58.815c0-2.463-2.093-4.558-4.556-4.558h-13.561v-2.084h15.644c2.463 0 4.557 2.094 4.557 4.558v33.993c0 1.795-1.067 3.325-2.563 4.07m21.05.488V54.257h-5.306v-2.084h7.39v43.109zm32.887 0V54.257h-5.905l.598-2.084h7.39v43.109zm-12.809-22.18V54.257h-5.307v-2.084h7.39V65.86zm32.261-3.009h6.107v2.084h-8.19c-.722 0-1.394.18-1.998.478a4.53 4.53 0 014.081-2.562m2.832-2.771l-2.083-.485v-5.129h2.083zm10.246 27.472c.298-.602.48-1.27.48-1.986v-8.744l-5.368-1.243v-2.565l7.451 1.725v8.744c.001 1.794-1.067 3.324-2.563 4.069" fill="#636466"/><path d="M276.652 76.996c.298-.602.48-1.27.48-1.985V58.814c0-2.463-2.094-4.557-4.557-4.557H261.49c-.717 0-1.385.184-1.987.48.744-1.497 2.274-2.564 4.07-2.564h11.085c2.463 0 4.557 2.094 4.557 4.557v16.197c.001 1.795-1.066 3.325-2.563 4.07m-12.329 12.979V79.568h2.083v8.324h3.276v2.084zm33.691-17.799h-.68v-17.92h-5.305v-2.084h7.389v15.523zm15.137 23.105H310.4l-6.228-19.41 6.897-21.615h-6.006l.577-1.838.061-.246h7.451l-6.897 21.615zm17.38 0V54.257h-5.306v-2.084h7.39v43.109z" fill="#636466"/><path d="M167.894 29.201h1.41c5.428-.277 9.685-1.728 12.392-4.723 2.738 2.987 6.994 4.457 12.455 4.723h1.35c12.106-.822 17.628-9.495 27.301-13.189 1.418-.54 3.22-1.15 4.785-.983 2.476.271 4.06 2.781 3.742 5.584-.342 3.016-3.276 5.61-6.564 4.172-.483-.21-.84-.508-1.165-.797-.254-.226-.534-.826-1.166-.613-.599.496.044 1.226.307 1.654 1.133 1.856 2.91 3.234 6.074 3.008 5.631-.404 10.675-5.338 9.814-12.822C236.71 4.006 226.521 1.066 214.457 0h-3.926c-12.529.744-21.43 5.113-28.773 11.043C174.293 5.193 165.469.71 152.863 0h-3.864c-12.16 1.072-22.445 4.016-24.233 15.461-.677 8.158 4.184 12.172 9.815 12.576 3.127.225 5.022-1.147 6.135-3.008.278-.463.803-1.166.307-1.717-.609-.108-.908.37-1.165.614-.699.664-1.494 1.18-2.822 1.228-3.862.14-6.077-4.154-4.54-7.608.525-1.18 1.797-2.364 3.374-2.517 1.568-.149 3.361.46 4.786.983 1.481.544 2.745 1.245 3.865 1.901 7.368 4.321 13.112 10.372 23.374 11.288" fill="#fff"/><path d="M361.657 70.11l5.716 5.717 2.084-2.083-5.716-5.718zM9.67 70.096l5.718 5.717 2.084-2.084-5.717-5.717z" fill="#636466"/><path d="M48.194 76.136h-5.358V65.667h5.358zm0 17.798h-5.358V83.526h5.358zm7.452-9.853a4.474 4.474 0 00-1.663-3.511c.924-.985 1.663-2.094 1.663-3.694V62.773c0-2.462-2.094-4.557-4.558-4.557H35.446v43.108h15.643c2.464 0 4.557-2.032 4.557-4.558zm25.559 9.853h-5.357V65.667h5.357zm2.896 7.39c2.462 0 4.556-2.032 4.556-4.558V62.771c0-2.462-2.094-4.556-4.556-4.556H73.016c-2.526 0-4.559 2.094-4.559 4.556v33.995a4.548 4.548 0 004.559 4.558zm30.116-7.39h-5.358V83.526h5.358zm.491-35.718l-3.018 17.92h-2.833v-17.92h-7.389v43.108h15.642c2.463 0 4.495-2.032 4.495-4.558V80.631a4.467 4.467 0 00-2.585-4.064l3.079-18.351zm31.535 35.718h-5.357V65.667h5.357zm2.896 7.39c2.463 0 4.556-2.032 4.556-4.558V62.771c0-2.462-2.093-4.556-4.556-4.556h-11.086c-2.525 0-4.558 2.094-4.558 4.556v33.995a4.548 4.548 0 004.558 4.558zm30.115-7.39h-5.357V65.667h5.357zm2.894 7.39c2.463 0 4.557-2.032 4.557-4.558V62.771c0-2.462-2.094-4.556-4.557-4.556h-15.642v43.109zm17.74 0h7.39V58.216h-7.39zm40.275 0V58.216h-7.39l-5.42 18.843V58.216h-7.39v43.108h7.328l5.42-17.675v17.675zm28.454-17.798c2.463 0 4.558-2.032 4.558-4.557V62.772c0-2.463-2.095-4.557-4.558-4.557h-11.085c-2.524 0-4.558 2.094-4.558 4.557v8.867l7.39 1.724v-7.696h5.358v10.469h-8.19a4.549 4.549 0 00-4.558 4.558v16.072a4.548 4.548 0 004.558 4.558h11.085c2.463 0 4.558-2.032 4.558-4.558v-8.744l-7.452-1.725v7.637h-5.358V83.526zm31.595-3.695l6.897-21.615h-7.451l-.061.246-5.543 17.674h-.68v-17.92h-7.39v43.108h7.39V83.526h.557l5.666 17.798h7.512zm18.972 21.493h7.39V58.216h-7.39z" fill="#fff"/></g></symbol><symbol id="logo-mobile"><path d="M0 17.564l4.659 4.658 4.658-4.658-4.658-4.66zm296.152.014l-4.657 4.657-4.66-4.659 4.657-4.658z" fill="#fff"/><path d="M38.137 17.73h1.697v-6.785h2.67V9.248h-4.367z" fill="#636466"/><g clip-path="url(#a)" transform="matrix(1.33333 0 0 -1.33333 0 40.053)"><path d="M37.706 15.809v7.753c0 1.097-.653 2.032-1.567 2.487.181-.368.293-.776.293-1.213v-7.753a2.73 2.73 0 00-1.016-2.146c.563-.603 1.016-1.28 1.016-2.26V4.06c0-1.505-1.28-2.785-2.786-2.785H25.36V0h9.562c1.505 0 2.785 1.28 2.785 2.786v8.619c0 .978-.45 1.656-1.017 2.259a2.73 2.73 0 011.017 2.145" fill="#636466"/><path d="M28.602 5.828h1.273v5.125h2.002v1.273h-3.275zm20.176 0h1.273V21.83h2.002v1.273h-3.275z" fill="#636466"/><path d="M56.313 26.048c.184-.368.294-.776.294-1.213V4.058c0-1.505-1.279-2.785-2.785-2.785h-6.774c-.438 0-.846.112-1.214.295C46.29.652 47.224 0 48.32 0h6.775C56.6 0 57.88 1.28 57.88 2.785v20.776c0 1.097-.652 2.032-1.567 2.487m12.641-9.305h1.273v5.088h2.001v1.273h-3.274zm7.485-5.526a2.728 2.728 0 011.58 2.484v9.86c0 1.11-.647 2.057-1.568 2.505.183-.372.296-.786.296-1.231v-9.861a2.733 2.733 0 00-1.581-2.484l1.88-11.217H73.59L73.803 0h4.517zm-5.753 1.01h-1.732V1.273h-3.243V0h4.517v10.954h.672zm17.841-6.399h1.274V21.83h2.002v1.273h-3.276z" fill="#636466"/><path d="M96.064 26.048a2.71 2.71 0 00.293-1.213V4.058c0-1.505-1.278-2.785-2.785-2.785h-6.776c-.437 0-.845.112-1.212.294C86.038.652 86.972 0 88.069 0h6.775c1.505 0 2.785 1.28 2.785 2.785v20.776c.002 1.097-.651 2.032-1.565 2.487m12.64-20.22h1.272V21.83h2.002v1.273h-3.274z" fill="#636466"/><path d="M116.24 26.048c.181-.368.293-.776.293-1.213V4.058c0-1.505-1.28-2.785-2.785-2.785h-8.288V0h9.56c1.505 0 2.784 1.28 2.784 2.785v20.776c.001 1.097-.65 2.032-1.565 2.487m12.867.299V1.273h-3.244V0h4.517v26.347zm20.1 0V1.273h-3.61L145.962 0h4.516v26.347zm-7.83-13.556V1.272h-3.242V0h4.514v8.363zm19.719-1.838h3.732v1.272h-5.006a2.75 2.75 0 00-1.222.291 2.774 2.774 0 012.496-1.563m1.729-1.693l-1.27-.297V5.828h1.27zm6.263 16.788c.183-.368.294-.776.294-1.213V19.49l-3.281-.759v-1.568l4.554 1.054v5.344c-.001 1.097-.652 2.032-1.567 2.487" fill="#636466"/><path d="M169.087 15.17c.183-.368.294-.776.294-1.213V4.058c0-1.505-1.28-2.785-2.785-2.785h-6.775c-.437 0-.846.112-1.214.295C159.06.652 159.997 0 161.095 0h6.774c1.506 0 2.784 1.28 2.784 2.785v9.9c0 1.096-.65 2.03-1.566 2.485m-7.534 7.934v-6.361h1.27v5.088h2.004v1.273zm20.59-10.877h-.414V1.273h-3.245V0h4.518v9.489zm9.251 14.12h-1.682l-3.806-11.862 4.216-13.212h-3.67l.35-1.123.039-.15h4.554l-4.215 13.21zm10.623 0V1.273h-3.244V0h4.517v26.347zm19.03-15.396l3.493 3.494 1.274-1.272-3.494-3.494zm-215.132.002l3.494 3.494 1.274-1.273L7.188 9.68z" fill="#636466"/><path d="M29.459 14.645h-3.275V8.247h3.275zm0 10.878h-3.275v-6.361h3.275zm4.554-6.023c0-.865-.376-1.619-1.016-2.146.564-.602 1.016-1.278 1.016-2.256v-8.62c0-1.506-1.281-2.786-2.785-2.786h-9.56V30.04h9.56c1.504 0 2.785-1.243 2.785-2.787zm15.621 6.023h-3.275V8.246h3.275zm1.768 4.517c1.506 0 2.786-1.243 2.786-2.787V6.478c0-1.506-1.28-2.786-2.786-2.786h-6.774c-1.543 0-2.786 1.28-2.786 2.786v20.775a2.781 2.781 0 002.786 2.787zm18.408-4.517h-3.274v-6.361h3.274zm.3-21.831l-1.844 10.953h-1.732V3.692h-4.516V30.04h9.561c1.505 0 2.748-1.243 2.748-2.787v-9.86a2.73 2.73 0 00-1.581-2.484l1.882-11.217zm19.274 21.831h-3.275V8.246h3.275zm1.768 4.517c1.506 0 2.785-1.243 2.785-2.787V6.478c0-1.506-1.279-2.786-2.785-2.786h-6.774c-1.543 0-2.785 1.28-2.785 2.786v20.775a2.78 2.78 0 002.785 2.787zm18.407-4.517h-3.274V8.246h3.274zm1.77 4.517c1.505 0 2.784-1.243 2.784-2.787V6.478c0-1.506-1.278-2.786-2.784-2.786h-9.561V30.04zm10.841 0h4.517V3.693h-4.517zm24.615 0V3.693h-4.517l-3.31 11.517V3.693h-4.519V30.04h4.48l3.311-10.803V30.04zm17.392-10.877c1.504 0 2.785-1.242 2.785-2.785v-9.9c0-1.505-1.281-2.784-2.785-2.784H157.4c-1.544 0-2.785 1.279-2.785 2.785v5.42l4.516 1.055V8.248h3.274v6.398H157.4a2.779 2.779 0 00-2.785 2.786v9.822a2.779 2.779 0 002.785 2.786h6.775c1.504 0 2.785-1.242 2.785-2.786V21.91l-4.555-1.054v4.668h-3.275v-6.361zm19.308-2.259l4.217-13.21h-4.555l-.038.15-3.388 10.802h-.415V3.694h-4.515V30.04h4.515V19.163h.34l3.463 10.877h4.593zm11.596 13.136h4.516V3.693h-4.516z" fill="#fff"/></g></symbol><symbol id="logo-tablet"><g clip-path="url(#a)" transform="matrix(1.33333 0 0 -1.33333 0 134.503)"><path d="M114.894 91.092l2.873 4.927c2.602 4.482 5.92 1.847 4.14-1.505-1.367-2.567-3.386-3.353-7.012-3.422m-3.833-16.217c-2.12 0-3.798.479-5.13 1.232.612.718 1.23 1.607 1.776 2.532l5.988 10.367.957-.103c8.348-1.746 5.031-14.028-3.59-14.028m8.791 14.575c7.187 2.429 7.733 11.427.65 11.427-1.947 0-4.274-1.37-5.882-4.174l-9.58-16.56a13.77 13.77 0 00-1.37-2.018c-2.463 3.387-1.742 8.45 1.712 10.674l-1.437 1.813c-7.458-4.755-5.27-18.475 7.184-18.475 10.64 0 15.567 12.763 8.724 17.313" fill="#fff"/><path d="M236.18 81.683h-.17c-1.162 0-2.088-.958-2.088-2.12 0-.446.138-.856.343-1.199l-.034-.068c-1.676-2.873-5.747-2.326-3.626 1.37l2.703 4.687 1.71 2.908c2.497 4.242 5.919 2.566 3.764-1.129zm-73.08-1.778c-.922.684-1.505 1.778-1.505 3.216 0 2.532 2.465 6.671 4.482 6.671.787 0 1.334-.582 1.334-1.54 0-.58-.205-1.3-.684-2.12zm-3.728-3.456c-.788 0-1.437.48-1.437 1.37 0 .512.206 1.093.617 1.846l1.266 2.19c.274-1.54.958-2.875 2.258-3.695-.72-1.163-1.813-1.71-2.704-1.71m-26.788 4.857c-2.155-3.386-4.277-4.995-5.75-4.995-.786 0-1.23.547-.41 1.95l4.964 8.655c1.915 3.32 5.712 2.463 3.968-.752zm45.606 5.611c2.053 3.524 5.678 2.942 3.557-.752l-.512-.89c-1.711-2.908-4.004-2.84-5.337-2.36zm81.015-4.995l-.237-.274c-1.985-2.326-4.347-4.243-6.502-4.995.58.924 1.027 1.916 1.472 2.67l3.934 6.738c3.32 5.645-2.052 7.527-5.68 4.276l.719 1.233h-3.558l-5.564-9.655a.11.11 0 00-.011.006l-.241-.274c-1.607-1.745-3.592-2.6-5.371-2.634l3.354 5.781c2.155 3.73.172 7.253-3.183 7.253-2.736 0-4.856-1.095-6.91-4.654l-1.745-3.044-1.452-2.486-.191-.217c-2.565-2.977-5.062-5.337-6.637-5.337-.787 0-1.231.547-.411 1.95l5.132 8.998c1.539 2.703.07 4.653-1.916 4.653-1.54 0-3.182-.855-4.961-2.704l5.68 9.888h-3.558l-9.923-17.215-.204-.233a22.126 22.126 0 00-4.278-3.866c1.132 3.387.893 8.587 3.08 13.137l-2.67 1.438c-1.47-2.02-4.684-6.672-7.901-10.435l-.24-.274c-2.565-2.977-5.064-5.337-6.636-5.337-.787 0-1.232.547-.411 1.95l3.558 6.227c1.232 2.155.65 3.421-.513 4.824l-1.985 2.394c-.513.651-.513 1.37.205 2.053l-1.847 2.02c-2.02-1.814-2.19-3.833-.924-5.475l.308-.41c-1.574-2.224-3.695-5.235-6.021-7.972l-.238-.274c-2.567-2.977-5.852-5.337-8.35-5.337-2.188 0-3.488 1.368-1.846 4.242l.34.616c2.293-.958 6.606-.512 9.274 4.105l.513.89c1.916 3.284.068 5.748-2.841 5.748-2.872 0-5.165-1.505-6.671-4.106L171.7 81.89l-.214-.244c-1.608-1.779-3.626-2.6-5.371-2.634l3.354 5.781c.89 1.574 1.333 2.942 1.333 4.071 0 1.813-1.23 3.182-3.217 3.182-.853 0-1.607-.308-2.326-.787l4.518 7.835h-3.627l-9.975-17.234-.187-.214c-2.567-2.977-5.063-5.337-6.638-5.337-.786 0-1.232.547-.41 1.95l3.557 6.227c1.232 2.155.65 3.421-.512 4.824L150 91.704c-.513.651-.513 1.37.205 2.053l-1.846 2.02c-2.021-1.814-2.191-3.833-.925-5.475l.309-.41c-1.575-2.224-3.696-5.235-6.021-7.972l-.24-.274c-2.566-2.977-5.063-5.337-6.636-5.337-.788 0-1.233.547-.412 1.95l5.749 10.058h-2.021c.138 1.506-1.401 3.593-3.728 3.593-1.916 0-4.583-1.505-6.09-4.106l-4.994-8.62c-1.507-2.636-.444-5.065 2.429-5.065 1.436 0 3.215.924 4.926 2.327.17-1.369 1.267-2.327 3.08-2.327 2.94 0 6.329 3.147 9.272 6.57 1.71 1.983 3.045 3.762 5.885 7.628l.478-.582c.445-.582.615-1.3.205-2.018l-3.763-6.535c-1.504-2.635-.444-5.064 2.428-5.064 2.064 0 4.345 1.55 6.537 3.652v-.025c0-2.429 1.814-3.797 4.106-3.797 1.98 0 4.275 1.026 6.056 3.318.27-.034.51-.034.786-.034 1.32 0 3.118.504 4.724 1.404-.186-2.568 1.677-4.518 4.822-4.518 4.037 0 8.039 3.147 10.98 6.57 1.713 1.983 3.046 3.762 5.886 7.628l.478-.582c.445-.582.616-1.3.205-2.018l-3.763-6.535c-1.506-2.635-.445-5.064 2.428-5.064 2.944 0 6.33 3.147 9.273 6.57h-.001c2.019 2.325 3.799 4.823 5.063 6.5-1.401-3.697-.65-10.334-4.036-10.334-1.196 0-1.677 1.3-1.677 1.3l-2.224-1.164s.649-2.874 3.9-2.874c.342 0 .649.034.99.068.037 0 .07.034.105.034 1.872.248 3.734 1.136 5.466 2.364l-1.224-2.124h3.593l5.404 9.408c5.476 6.876 7.904 5.987 6.364 3.353l-4.62-8.04c-1.504-2.635-.443-5.064 2.43-5.064 2.068 0 4.355 1.556 6.552 3.667-.008-4.537 6.294-5.422 10.145-.553h.789c1.073 0 2.463.334 3.81.944l-6.48-11.242h3.593l10.64 18.51c3.969 5.405 6.468 3.42 5.544 1.812l-5.37-9.306c-.583-1.027-1.918-1.334-2.568 0l-2.018-.958s.649-2.874 3.899-2.874h.206c5.166.103 8.553 3.182 11.46 6.57-.208.555-.823 1.103-1.338 1.24M11.433 27.602l-5.718-5.716L0 27.603l5.717 5.716zm351.987.015l-5.716-5.715-5.716 5.717 5.717 5.715z" fill="#fff"/><path d="M46.795 27.396h2.083v8.324h3.275v2.085h-5.358zm14.893-1.528v12.685c0 1.794-1.068 3.325-2.564 4.07.297-.604.48-1.272.48-1.987V27.95a4.473 4.473 0 00-1.662-3.51c.924-.986 1.662-2.095 1.662-3.695V6.64c0-2.462-2.094-4.556-4.558-4.556H41.487V0H57.13c2.464 0 4.558 2.094 4.558 4.556v14.106c0 1.602-.738 2.71-1.662 3.695a4.472 4.472 0 011.662 3.511" fill="#636466"/><path d="M46.795 9.537h2.083v8.385h3.275v2.084h-5.358zm33.012 0h2.083v26.184h3.274v2.084h-5.357z" fill="#636466"/><path d="M92.136 42.623c.298-.602.479-1.27.479-1.986V6.643c0-2.463-2.093-4.557-4.556-4.557H76.975c-.718 0-1.386.183-1.987.48.744-1.496 2.274-2.564 4.07-2.564h11.085c2.463 0 4.556 2.094 4.556 4.557v33.994c0 1.795-1.068 3.325-2.563 4.07m20.68-15.227h2.083v8.324h3.276v2.085h-5.359zm12.245-9.042a4.469 4.469 0 012.586 4.064v16.135a4.557 4.557 0 01-2.566 4.098 4.558 4.558 0 00.483-2.015V24.501a4.467 4.467 0 00-2.585-4.064l3.078-18.352H120.4l.35-2.084h7.392zm-9.411 1.652h-2.834V2.086h-5.306V.002h7.39v17.92h1.1zm29.195-10.469h2.083v26.184h3.274v2.084h-5.357z" fill="#636466"/><path d="M157.173 42.623c.299-.602.48-1.27.48-1.986V6.643c0-2.463-2.093-4.557-4.556-4.557H142.01c-.717 0-1.385.183-1.985.48.743-1.496 2.272-2.564 4.068-2.564h11.086c2.463 0 4.556 2.094 4.556 4.557v33.994c0 1.795-1.067 3.325-2.563 4.07m20.683-33.086h2.083v26.184h3.275v2.084h-5.358z" fill="#636466"/><path d="M190.185 42.623c.298-.602.479-1.27.479-1.986V6.643c0-2.463-2.093-4.557-4.556-4.557h-13.561V.002h15.644c2.463 0 4.557 2.094 4.557 4.557v33.994c0 1.795-1.067 3.325-2.563 4.07m21.05.488V2.086h-5.306V.002h7.39v43.11zm32.887 0V2.086h-5.905l.598-2.084h7.39v43.11zM231.313 20.93V2.086h-5.307V.002h7.39v13.686zm32.261-3.008h6.107v2.084h-8.19c-.722 0-1.394.182-1.998.477a4.532 4.532 0 014.081-2.561m2.832-2.77l-2.083-.486V9.537h2.083zm10.246 27.471c.298-.602.48-1.27.48-1.986v-8.744l-5.368-1.243v-2.565l7.451 1.725v8.744c.001 1.794-1.067 3.324-2.563 4.069" fill="#636466"/><path d="M276.652 24.825c.298-.603.48-1.269.48-1.985V6.642c0-2.463-2.094-4.556-4.557-4.556H261.49a4.47 4.47 0 00-1.987.48c.744-1.496 2.274-2.564 4.07-2.564h11.085c2.463 0 4.557 2.094 4.557 4.556v16.198c.001 1.795-1.066 3.325-2.563 4.07m-12.329 12.979V27.397h2.083v8.324h3.276v2.084zm33.691-17.799h-.68V2.086h-5.305V.002h7.389v15.524zm15.137 23.105H310.4l-6.228-19.41 6.897-21.615h-6.006l.577-1.838.061-.246h7.451l-6.897 21.615zm17.38 0V2.086h-5.306V.002h7.39v43.11zm31.126-25.171l5.716 5.716 2.084-2.084-5.716-5.717zM9.67 17.924l5.718 5.717 2.084-2.084-5.717-5.717z" fill="#636466"/><path d="M48.194 23.965h-5.358V13.496h5.358zm0 17.798h-5.358V31.356h5.358zm7.452-9.853c0-1.416-.616-2.648-1.663-3.512.924-.984 1.663-2.093 1.663-3.693V10.602c0-2.463-2.094-4.557-4.558-4.557H35.446v43.107h15.643c2.464 0 4.557-2.031 4.557-4.557zm25.559 9.853h-5.357V13.496h5.357zm2.896 7.389c2.462 0 4.556-2.031 4.556-4.557V10.602c0-2.464-2.094-4.558-4.556-4.558H73.016c-2.526 0-4.559 2.094-4.559 4.558v33.993a4.547 4.547 0 004.559 4.557zm30.116-7.389h-5.358V31.356h5.358zm.491-35.718l-3.018 17.92h-2.833V6.045h-7.389v43.107h15.642c2.463 0 4.495-2.031 4.495-4.557V28.46a4.466 4.466 0 00-2.585-4.064l3.079-18.351zm31.535 35.718h-5.357V13.496h5.357zm2.896 7.389c2.463 0 4.556-2.031 4.556-4.557V10.602c0-2.464-2.093-4.558-4.556-4.558h-11.086c-2.525 0-4.558 2.094-4.558 4.558v33.993a4.547 4.547 0 004.558 4.557zm30.115-7.389h-5.357V13.496h5.357zm2.894 7.389c2.463 0 4.557-2.031 4.557-4.557V10.602c0-2.464-2.094-4.558-4.557-4.558h-15.642v43.108zm17.74 0h7.39V6.045h-7.39zm40.275 0V6.045h-7.39l-5.42 18.842V6.045h-7.39v43.107h7.328l5.42-17.674v17.674zm28.454-17.797c2.463 0 4.558-2.033 4.558-4.558V10.601c0-2.464-2.095-4.558-4.558-4.558h-11.085c-2.524 0-4.558 2.094-4.558 4.558v8.866l7.39 1.726v-7.697h5.358v10.468h-8.19a4.55 4.55 0 00-4.558 4.56v16.07a4.547 4.547 0 004.558 4.558h11.085c2.463 0 4.558-2.03 4.558-4.558v-8.743l-7.452-1.725v7.636h-5.358V31.355zm31.595-3.695l6.897-21.615h-7.451l-.061.246-5.543 17.674h-.68V6.045h-7.39v43.107h7.39V31.355h.557l5.666 17.797h7.512zm18.972 21.492h7.39V6.045h-7.39z" fill="#fff"/></g></symbol><symbol id="mustache-icon"><g clip-path="url(#a)" transform="matrix(1.33333 0 0 -1.33333 0 17.2)"><path d="M22.488 4.66c1.151-1.709 3.64-4.447 8.78-4.65 7.161-.277 13.71 5.217 13.71 7.281-2.759-2.494-7.368-2.717-9.93-1.695-3.78 1.508-3.122 4.494-5.875 6.447-1.563 1.11-3.785 1.176-5.688 0a5.212 5.212 0 01-.997-.81 5.144 5.144 0 01-.997.81c-1.903 1.176-4.125 1.11-5.689 0-2.752-1.953-2.094-4.938-5.873-6.447C7.366 4.573 2.76 4.797 0 7.291 0 5.227 6.547-.267 13.71.011c5.141.202 7.627 2.94 8.778 4.65" fill="#6a4d38"/></g></symbol><symbol id="scissors-icon"><g clip-path="url(#a)" transform="matrix(1.33333 0 0 -1.33333 0 26.667)"><path d="M21 19h-4l-6-6 2-2zm-11-8.5c.3 0 .5-.2.5-.5s-.2-.5-.5-.5-.5.2-.5.5.2.5.5.5M4 2c-1.1 0-2 .9-2 2s.9 2 2 2 2-.9 2-2-.9-2-2-2m0 12c-1.1 0-2 .9-2 2s.9 2 2 2 2-.9 2-2-.9-2-2-2m4 2c0 2.2-1.8 4-4 4s-4-1.8-4-4 1.8-4 4-4c.6 0 1.1.1 1.6.4L8 10 5.6 7.6c-.5.3-1 .4-1.6.4-2.2 0-4-1.8-4-4s1.8-4 4-4 4 1.8 4 4c0 .6-.1 1.1-.4 1.6L10 8l7-7h4L7.6 14.4c.3.5.4 1 .4 1.6" fill="#6a4d38"/></g></symbol><symbol id="user"><path data-name="User copy 2" d="M272.868 279.227a1.577 1.577 0 00-.721.269 1.75 1.75 0 00-.786.046 1.83 1.83 0 00-1.18 1.619c-.04.394-.05 1.5-.023 2.1.08.356-.2.356-.2.356-.5-.033-.278 1.516-.278 1.516a.814.814 0 00.722.866 3.173 3.173 0 001.286 1.526s0 .616.018 1.072c-.076-.037.26 1.165-2.062 1.5s-2.766 1.077-3.2 1.489-.421 2.41-.421 2.41L281 294s-.112-2-.549-2.417-.915-1.152-3.236-1.489c-2.257-.321-1.886-1.507-1.9-1.578 0-.179.028-.941.028-.941a3.91 3.91 0 001.145-1.61 1.322 1.322 0 00.866-.8s.165-1.564-.364-1.556c0 0-.251.08-.171-.275a9.608 9.608 0 00.014-1.86c-.041-.395.02-1.523-.822-1.681a5.162 5.162 0 00-.931-.041c-.281-.039-.615-.755-1.137-.755z" transform="translate(-266.031 -279)" fill="#d1d1d1" fill-rule="evenodd" filter="url(#a)"/></symbol></svg>